<mxfile host="65bd71144e">
    <diagram id="OxH8GuYBIj9SV0KPJk_6" name="Page-1">
        <mxGraphModel dx="984" dy="531" grid="1" gridSize="10" guides="1" tooltips="1" connect="1" arrows="1" fold="1" page="1" pageScale="1" pageWidth="850" pageHeight="1100" math="0" shadow="0">
            <root>
                <mxCell id="0"/>
                <mxCell id="1" parent="0"/>
                <mxCell id="2" value="osk_style.uc.css" style="rounded=0;whiteSpace=wrap;html=1;" parent="1" vertex="1">
                    <mxGeometry x="460" y="260" width="120" height="60" as="geometry"/>
                </mxCell>
                <mxCell id="11" value="" style="edgeStyle=none;html=1;" edge="1" parent="1" source="3" target="5">
                    <mxGeometry relative="1" as="geometry"/>
                </mxCell>
                <mxCell id="22" value="write osk focus event" style="edgeLabel;html=1;align=center;verticalAlign=middle;resizable=0;points=[];fontSize=11;" vertex="1" connectable="0" parent="11">
                    <mxGeometry x="-0.2238" relative="1" as="geometry">
                        <mxPoint y="3" as="offset"/>
                    </mxGeometry>
                </mxCell>
                <mxCell id="24" value="" style="edgeStyle=none;html=1;fontSize=11;" edge="1" parent="1" source="3" target="23">
                    <mxGeometry relative="1" as="geometry"/>
                </mxCell>
                <mxCell id="25" value="get osk focus&lt;br&gt;event from dbus" style="edgeLabel;html=1;align=center;verticalAlign=middle;resizable=0;points=[];fontSize=11;" vertex="1" connectable="0" parent="24">
                    <mxGeometry x="0.1893" y="2" relative="1" as="geometry">
                        <mxPoint x="2" y="7" as="offset"/>
                    </mxGeometry>
                </mxCell>
                <mxCell id="3" value="focus_monitor.py" style="rounded=0;whiteSpace=wrap;html=1;" parent="1" vertex="1">
                    <mxGeometry x="50" y="210" width="120" height="60" as="geometry"/>
                </mxCell>
                <mxCell id="7" value="" style="edgeStyle=none;html=1;" edge="1" parent="1" source="4" target="6">
                    <mxGeometry relative="1" as="geometry"/>
                </mxCell>
                <mxCell id="19" value="send unfocus singal&lt;br&gt;and send poll signal for&lt;br&gt;osk_overlay_config.js" style="edgeLabel;html=1;align=center;verticalAlign=middle;resizable=0;points=[];" vertex="1" connectable="0" parent="7">
                    <mxGeometry x="-0.0873" y="-1" relative="1" as="geometry">
                        <mxPoint as="offset"/>
                    </mxGeometry>
                </mxCell>
                <mxCell id="13" style="edgeStyle=none;html=1;entryX=0.5;entryY=0;entryDx=0;entryDy=0;exitX=1;exitY=0.5;exitDx=0;exitDy=0;" edge="1" parent="1" source="4" target="2">
                    <mxGeometry relative="1" as="geometry">
                        <Array as="points">
                            <mxPoint x="520" y="210"/>
                        </Array>
                    </mxGeometry>
                </mxCell>
                <mxCell id="17" value="detect unfocus" style="edgeLabel;html=1;align=center;verticalAlign=middle;resizable=0;points=[];" vertex="1" connectable="0" parent="13">
                    <mxGeometry x="0.6157" y="-1" relative="1" as="geometry">
                        <mxPoint as="offset"/>
                    </mxGeometry>
                </mxCell>
                <mxCell id="4" value="osk_config_trigger.uc.js" style="rounded=0;whiteSpace=wrap;html=1;" parent="1" vertex="1">
                    <mxGeometry x="285" y="180" width="130" height="60" as="geometry"/>
                </mxCell>
                <mxCell id="5" value="osk_overlay_config.js" style="rounded=0;whiteSpace=wrap;html=1;" parent="1" vertex="1">
                    <mxGeometry x="50" y="340" width="120" height="60" as="geometry"/>
                </mxCell>
                <mxCell id="15" style="edgeStyle=none;html=1;entryX=0.5;entryY=1;entryDx=0;entryDy=0;exitX=1;exitY=0.5;exitDx=0;exitDy=0;" edge="1" parent="1" source="6" target="2">
                    <mxGeometry relative="1" as="geometry">
                        <Array as="points">
                            <mxPoint x="520" y="370"/>
                        </Array>
                    </mxGeometry>
                </mxCell>
                <mxCell id="18" value="hide/show overlays" style="edgeLabel;html=1;align=center;verticalAlign=middle;resizable=0;points=[];" vertex="1" connectable="0" parent="15">
                    <mxGeometry x="0.4586" y="1" relative="1" as="geometry">
                        <mxPoint x="1" y="-13" as="offset"/>
                    </mxGeometry>
                </mxCell>
                <mxCell id="20" style="edgeStyle=none;html=1;entryX=1;entryY=0.5;entryDx=0;entryDy=0;fontSize=11;" edge="1" parent="1" source="6" target="5">
                    <mxGeometry relative="1" as="geometry"/>
                </mxCell>
                <mxCell id="21" value="read file for&lt;br&gt;osk focus event." style="edgeLabel;html=1;align=center;verticalAlign=middle;resizable=0;points=[];fontSize=11;" vertex="1" connectable="0" parent="20">
                    <mxGeometry x="-0.1381" y="-2" relative="1" as="geometry">
                        <mxPoint x="-9" as="offset"/>
                    </mxGeometry>
                </mxCell>
                <mxCell id="6" value="osk_manager.sys.mjs" style="rounded=0;whiteSpace=wrap;html=1;" parent="1" vertex="1">
                    <mxGeometry x="290" y="340" width="120" height="60" as="geometry"/>
                </mxCell>
                <mxCell id="23" value="Dbus" style="rounded=0;whiteSpace=wrap;html=1;fontSize=11;" vertex="1" parent="1">
                    <mxGeometry x="50" y="80" width="120" height="60" as="geometry"/>
                </mxCell>
            </root>
        </mxGraphModel>
    </diagram>
</mxfile>